<?xml version="1.0" encoding="utf-8"?>
<!-- Generator: Adobe Illustrator 16.0.0, SVG Export Plug-In . SVG Version: 6.00 Build 0)  -->
<!DOCTYPE svg PUBLIC "-//W3C//DTD SVG 1.1//EN" "http://www.w3.org/Graphics/SVG/1.1/DTD/svg11.dtd">
<svg version="1.1" id="Layer_1" xmlns="http://www.w3.org/2000/svg" xmlns:xlink="http://www.w3.org/1999/xlink" x="0px" y="0px"
	 width="612px" height="191.25px" viewBox="0 0 612 191.25" enable-background="new 0 0 612 191.25" xml:space="preserve">
<path fill="#010101" d="M592.923,191.25H19.173c-10.519,0-19.125-8.606-19.125-19.125v-153C0.048,8.606,8.654,0,19.173,0h573.75
	c10.519,0,19.125,8.606,19.125,19.125v153C612.048,182.644,603.441,191.25,592.923,191.25z"/>
<g>
	<g>
		<g>
			<path fill="#FFFFFF" d="M144.254,38.244c-31.603,0-57.493,24.367-59.954,55.336l32.245,13.331
				c2.732-1.867,6.034-2.959,9.585-2.959c0.318,0,0.635,0.008,0.949,0.025l14.34-20.785c0-0.1-0.002-0.194-0.002-0.292
				c0-12.512,10.178-22.69,22.689-22.69c12.509,0,22.687,10.178,22.687,22.69c0,12.51-10.178,22.689-22.687,22.689
				c-0.174,0-0.344-0.004-0.515-0.008l-20.452,14.592c0.011,0.268,0.019,0.537,0.019,0.807c0,9.391-7.639,17.031-17.029,17.031
				c-8.243,0-15.135-5.885-16.697-13.676l-23.061-9.533c7.14,25.252,30.34,43.766,57.882,43.766
				c33.227,0,60.161-26.936,60.161-60.162S177.48,38.244,144.254,38.244z"/>
			<path fill="#FFFFFF" d="M122.002,129.529l-7.39-3.053c1.31,2.727,3.575,5.01,6.583,6.264c6.502,2.709,14-0.377,16.71-6.883
				c1.312-3.15,1.321-6.625,0.02-9.779c-1.299-3.156-3.751-5.617-6.901-6.932c-3.126-1.303-6.477-1.254-9.42-0.143l7.636,3.154
				c4.796,2,7.064,7.508,5.065,12.305C132.308,129.26,126.798,131.529,122.002,129.529z"/>
			<path fill="#FFFFFF" d="M179.222,82.899c0-8.337-6.781-15.12-15.117-15.12c-8.336,0-15.12,6.783-15.12,15.12
				c0,8.335,6.784,15.117,15.12,15.117C172.441,98.016,179.222,91.234,179.222,82.899z M152.773,82.873
				c0-6.273,5.086-11.355,11.357-11.355c6.273,0,11.357,5.082,11.357,11.355c0,6.273-5.084,11.355-11.357,11.355
				C157.859,94.228,152.773,89.146,152.773,82.873z"/>
		</g>
		<g>
			<path fill="#FFFFFF" d="M268.666,79.405l-4.03,7.087c-3.105-2.17-7.313-3.475-10.986-3.475c-4.199,0-6.797,1.737-6.797,4.85
				c0,3.783,4.615,4.664,11.475,7.125c7.372,2.608,11.609,5.672,11.609,12.424c0,9.236-7.266,14.428-17.707,14.428
				c-5.09,0-11.229-1.314-15.948-4.184l2.94-7.857c3.835,2.025,8.42,3.225,12.509,3.225c5.511,0,8.131-2.033,8.131-5.039
				c0-3.439-3.996-4.473-10.442-6.607c-7.348-2.453-12.439-5.671-12.439-13.146c0-8.428,6.749-13.268,16.461-13.268
				C260.208,74.968,265.647,77.112,268.666,79.405z"/>
			<path fill="#FFFFFF" d="M300.175,83.885v37.182h-9.49V83.885h-13.776v-8.141h37.003v8.141H300.175z"/>
			<path fill="#FFFFFF" d="M333.922,83.859v10.213h18.164v8.14h-18.164v10.639h21.072v8.215h-30.563V75.744h30.563v8.115H333.922z"
				/>
			<path fill="#FFFFFF" d="M376.182,112.266l-3.002,8.801h-9.949l16.994-45.322h9.555l17.473,45.322h-10.287l-3.066-8.801H376.182z
				 M384.945,86.557l-6.186,18.146h12.506L384.945,86.557z"/>
			<path fill="#FFFFFF" d="M455.961,93.261l-12.402,26.485h-5.355L426.002,93.5v27.567h-9.09V75.744h9.066l15.234,32.715
				l14.689-32.715h9.148v45.322h-9.09V93.261z"/>
			<path fill="#FFFFFF" d="M483.4,81.461c0,3.894-2.918,6.322-6.27,6.322c-3.361,0-6.287-2.428-6.287-6.322
				c0-3.895,2.926-6.306,6.287-6.306C480.482,75.155,483.4,77.566,483.4,81.461z M471.898,81.461c0,3.257,2.348,5.304,5.232,5.304
				c2.875,0,5.211-2.047,5.211-5.304c0-3.269-2.336-5.284-5.211-5.284C474.252,76.177,471.898,78.217,471.898,81.461z
				 M477.221,78.24c1.623,0,2.17,0.859,2.17,1.788c0,0.851-0.504,1.422-1.121,1.713l1.457,2.731h-1.193l-1.229-2.42h-1.266v2.42
				h-0.994V78.24H477.221z M476.049,81.138h1.111c0.713,0,1.137-0.45,1.137-1.016c0-0.571-0.303-0.937-1.143-0.937h-1.105V81.138z"
				/>
		</g>
	</g>
	<g>
		<path fill="#F1F2F2" d="M260.092,49.995c-0.625,1.491-1.508,2.779-2.652,3.865c-1.144,1.086-2.508,1.941-4.09,2.564
			c-1.582,0.624-3.322,0.936-5.216,0.936h-8.423V33.099h8.423c1.894,0,3.634,0.306,5.216,0.918s2.946,1.461,4.09,2.547
			c1.145,1.086,2.027,2.369,2.652,3.847c0.623,1.479,0.936,3.073,0.936,4.783C261.028,46.905,260.715,48.504,260.092,49.995z
			 M257.475,41.486c-0.475-1.178-1.145-2.201-2.01-3.067c-0.867-0.866-1.924-1.547-3.172-2.045
			c-1.248-0.497-2.635-0.745-4.159-0.745h-5.685V54.83h5.685c1.524,0,2.911-0.243,4.159-0.728c1.248-0.485,2.305-1.161,3.172-2.028
			c0.865-0.866,1.535-1.877,2.01-3.033c0.473-1.155,0.711-2.414,0.711-3.778C258.186,43.924,257.948,42.665,257.475,41.486z"/>
		<path fill="#F1F2F2" d="M289.586,49.995c-0.602,1.514-1.444,2.848-2.529,4.003c-1.087,1.156-2.393,2.074-3.917,2.755
			s-3.212,1.022-5.061,1.022s-3.53-0.335-5.043-1.005s-2.813-1.577-3.899-2.721c-1.086-1.144-1.923-2.472-2.512-3.986
			c-0.59-1.513-0.885-3.113-0.885-4.8c0-1.686,0.301-3.287,0.901-4.8c0.601-1.513,1.444-2.847,2.53-4.003
			c1.086-1.155,2.392-2.074,3.916-2.755c1.525-0.681,3.212-1.022,5.061-1.022s3.529,0.335,5.043,1.005
			c1.514,0.67,2.813,1.577,3.899,2.721c1.085,1.144,1.923,2.473,2.513,3.986c0.59,1.514,0.884,3.114,0.884,4.8
			C290.488,46.881,290.187,48.482,289.586,49.995z M286.935,41.347c-0.474-1.224-1.138-2.288-1.993-3.188
			c-0.854-0.901-1.865-1.617-3.032-2.149c-1.167-0.531-2.443-0.797-3.83-0.797c-1.386,0-2.663,0.26-3.829,0.78
			c-1.168,0.52-2.167,1.23-2.998,2.131c-0.832,0.901-1.485,1.958-1.959,3.171c-0.474,1.213-0.711,2.513-0.711,3.899
			c0,1.387,0.237,2.692,0.711,3.917c0.474,1.225,1.139,2.288,1.993,3.189c0.854,0.901,1.866,1.617,3.032,2.149
			c1.167,0.532,2.443,0.797,3.83,0.797s2.663-0.26,3.83-0.78c1.166-0.52,2.166-1.23,2.998-2.131
			c0.832-0.901,1.484-1.958,1.958-3.171c0.474-1.213,0.71-2.513,0.71-3.899C287.645,43.877,287.409,42.572,286.935,41.347z"/>
		<path fill="#F1F2F2" d="M310.973,33.029h2.252l6.654,20.275l6.932-20.206h2.877l-8.664,24.435h-2.322l-6.654-19.687l-6.691,19.687
			h-2.287l-8.665-24.435h2.981l6.932,20.206L310.973,33.029z"/>
		<path fill="#F1F2F2" d="M352.492,33.099h2.67V57.36h-2.184l-15.666-19.895V57.36h-2.668V33.099h2.564l15.283,19.443V33.099z"/>
		<path fill="#F1F2F2" d="M362.025,33.099h2.736V54.83h13.656v2.53h-16.393V33.099z"/>
		<path fill="#F1F2F2" d="M406.248,49.995c-0.6,1.514-1.443,2.848-2.529,4.003c-1.086,1.156-2.393,2.074-3.916,2.755
			c-1.525,0.681-3.213,1.022-5.061,1.022c-1.85,0-3.529-0.335-5.043-1.005s-2.814-1.577-3.898-2.721
			c-1.088-1.144-1.924-2.472-2.514-3.986c-0.59-1.513-0.885-3.113-0.885-4.8c0-1.686,0.301-3.287,0.902-4.8
			c0.6-1.513,1.443-2.847,2.529-4.003c1.086-1.155,2.393-2.074,3.916-2.755c1.525-0.681,3.213-1.022,5.061-1.022
			c1.85,0,3.529,0.335,5.043,1.005c1.514,0.67,2.813,1.577,3.9,2.721c1.086,1.144,1.924,2.473,2.512,3.986
			c0.59,1.514,0.885,3.114,0.885,4.8C407.15,46.881,406.85,48.482,406.248,49.995z M403.598,41.347
			c-0.475-1.224-1.139-2.288-1.994-3.188c-0.854-0.901-1.865-1.617-3.031-2.149c-1.168-0.531-2.443-0.797-3.83-0.797
			s-2.664,0.26-3.83,0.78c-1.168,0.52-2.166,1.23-2.998,2.131s-1.484,1.958-1.959,3.171c-0.473,1.213-0.709,2.513-0.709,3.899
			c0,1.387,0.236,2.692,0.709,3.917c0.475,1.225,1.139,2.288,1.994,3.189c0.854,0.901,1.865,1.617,3.031,2.149
			c1.168,0.532,2.445,0.797,3.83,0.797c1.387,0,2.664-0.26,3.83-0.78s2.166-1.23,2.998-2.131c0.832-0.901,1.484-1.958,1.959-3.171
			c0.473-1.213,0.711-2.513,0.711-3.899C404.309,43.877,404.07,42.572,403.598,41.347z"/>
		<path fill="#F1F2F2" d="M435.535,57.36h-2.945l-2.842-6.412h-13.205l-2.877,6.412h-2.809l11.057-24.435h2.564L435.535,57.36z
			 M423.162,36.148l-5.545,12.374h11.057L423.162,36.148z"/>
		<path fill="#F1F2F2" d="M460.697,49.995c-0.623,1.491-1.508,2.779-2.65,3.865c-1.145,1.086-2.508,1.941-4.09,2.564
			c-1.584,0.624-3.322,0.936-5.217,0.936h-8.422V33.099h8.422c1.895,0,3.633,0.306,5.217,0.918c1.582,0.612,2.945,1.461,4.09,2.547
			c1.143,1.086,2.027,2.369,2.65,3.847c0.625,1.479,0.938,3.073,0.938,4.783C461.635,46.905,461.322,48.504,460.697,49.995z
			 M458.082,41.486c-0.475-1.178-1.145-2.201-2.012-3.067c-0.865-0.866-1.922-1.547-3.17-2.045c-1.248-0.497-2.635-0.745-4.16-0.745
			h-5.684V54.83h5.684c1.525,0,2.912-0.243,4.16-0.728c1.248-0.485,2.305-1.161,3.17-2.028c0.867-0.866,1.537-1.877,2.012-3.033
			c0.473-1.155,0.709-2.414,0.709-3.778C458.791,43.924,458.555,42.665,458.082,41.486z"/>
		<path fill="#F1F2F2" d="M500.59,49.995c-0.6,1.514-1.443,2.848-2.529,4.003c-1.086,1.156-2.393,2.074-3.916,2.755
			c-1.525,0.681-3.213,1.022-5.061,1.022c-1.85,0-3.529-0.335-5.043-1.005s-2.814-1.577-3.898-2.721
			c-1.088-1.144-1.924-2.472-2.514-3.986c-0.59-1.513-0.885-3.113-0.885-4.8c0-1.686,0.301-3.287,0.902-4.8
			c0.6-1.513,1.443-2.847,2.529-4.003c1.086-1.155,2.393-2.074,3.916-2.755c1.525-0.681,3.213-1.022,5.061-1.022
			c1.85,0,3.529,0.335,5.043,1.005c1.514,0.67,2.813,1.577,3.9,2.721c1.086,1.144,1.924,2.473,2.512,3.986
			c0.59,1.514,0.885,3.114,0.885,4.8C501.492,46.881,501.191,48.482,500.59,49.995z M497.939,41.347
			c-0.475-1.224-1.139-2.288-1.994-3.188c-0.854-0.901-1.865-1.617-3.031-2.149c-1.168-0.531-2.443-0.797-3.83-0.797
			s-2.664,0.26-3.83,0.78c-1.168,0.52-2.166,1.23-2.998,2.131s-1.484,1.958-1.959,3.171c-0.473,1.213-0.709,2.513-0.709,3.899
			c0,1.387,0.236,2.692,0.709,3.917c0.475,1.225,1.139,2.288,1.994,3.189c0.854,0.901,1.865,1.617,3.031,2.149
			c1.168,0.532,2.445,0.797,3.83,0.797c1.387,0,2.664-0.26,3.83-0.78s2.166-1.23,2.998-2.131c0.832-0.901,1.484-1.958,1.959-3.171
			c0.473-1.213,0.711-2.513,0.711-3.899C498.65,43.877,498.412,42.572,497.939,41.347z"/>
		<path fill="#F1F2F2" d="M525.129,33.099h2.668V57.36h-2.184l-15.666-19.895V57.36h-2.668V33.099h2.564l15.285,19.443V33.099z"/>
	</g>
</g>
</svg>
